<svg width="62" height="55" viewBox="0 0 62 55" fill="none" xmlns="http://www.w3.org/2000/svg">
<g clip-path="url(#clip0_20_101)">
<path d="M42.3463 10.2598H47.8199C54.9348 10.2598 60.774 16.0324 60.774 23.2139V23.543C60.7111 24.1093 60.1937 24.6065 59.6559 24.6065H30.5104C29.8961 24.6064 29.3925 24.1026 29.3922 23.4883V23.1485C29.4594 16.0322 35.2328 10.26 42.3463 10.2598ZM42.3463 12.4278C36.8114 12.4279 32.1883 16.7015 31.6979 22.1661L31.6735 22.4376H58.5651L58.5367 22.1622C57.9765 16.7009 53.3556 12.4278 47.8199 12.4278H42.3463Z" fill="#A1EE30" stroke="#A1EE30" stroke-width="0.5"/>
<path d="M30.5104 33.6583H59.5875C59.9163 33.6583 60.257 33.8243 60.4869 34.1115C60.7035 34.3822 60.7622 34.772 60.65 35.1085L60.6481 35.1144L59.8981 37.5714C59.0401 40.1449 56.6668 41.9152 54.1139 41.9152H36.0524C33.4327 41.9152 31.1277 40.1464 30.2692 37.5714L29.4479 35.1085C29.3401 34.7851 29.3847 34.4564 29.6168 34.1036C29.8177 33.8566 30.1015 33.7014 30.3873 33.6661L30.5104 33.6583ZM32.1168 36.1427L32.3219 36.8947L32.3239 36.9015C32.833 38.5744 34.3628 39.7472 36.0524 39.7472H54.0455C55.7418 39.7472 57.1945 38.569 57.7711 36.9113L57.774 36.9034L57.776 36.8947L57.9811 36.1427L58.068 35.8263H32.0309L32.1168 36.1427Z" fill="#A1EE30" stroke="#A1EE30" stroke-width="0.5"/>
<path d="M42.3573 27.7263C44.0472 26.4914 46.3893 26.4901 48.08 27.7234V27.7243L48.6278 28.1355C49.541 28.8202 50.8909 28.8128 51.8622 28.1404L51.87 28.1355L52.1434 27.9294L52.1425 27.9284C53.8332 26.6947 56.176 26.6965 57.8661 27.9314L57.869 27.9333L60.4686 29.781L60.4755 29.7849C60.9726 30.1164 61.0729 30.8323 60.6991 31.2595L60.6884 31.2722L60.6796 31.2859C60.348 31.783 59.6322 31.8833 59.205 31.5095L59.1854 31.4939L56.5887 29.6501C55.6755 28.9662 54.3273 28.9731 53.3563 29.6452L53.3485 29.6511L53.077 29.8542C51.4388 31.0512 49.1879 31.0889 47.5116 29.9665L47.3514 29.8542L46.8065 29.445C45.8933 28.7604 44.5434 28.7677 43.5721 29.4402L43.5643 29.445L42.746 30.0593C41.055 31.2949 38.7113 31.295 37.0204 30.0593L36.8583 29.9509C36.0263 29.4447 34.8506 29.4176 33.9374 29.9792L30.9266 31.8269L30.9188 31.8318C30.7592 31.9381 30.5353 31.9948 30.3739 31.9948C29.9746 31.9948 29.644 31.8285 29.4188 31.4909C29.0954 31.0058 29.2439 30.3414 29.8182 29.9968L29.8202 29.9948L32.8309 28.1482C34.5265 27.1047 36.7407 27.1735 38.2968 28.3405C39.2099 29.0253 40.5588 29.0176 41.5302 28.3454L41.5311 28.3464L41.5389 28.3405L42.3563 27.7253L42.3573 27.7263Z" fill="#A1EE30" stroke="#A1EE30" stroke-width="0.5"/>
</g>
<mask id="path-4-outside-1_20_101" maskUnits="userSpaceOnUse" x="1" y="8" width="25" height="36" fill="black">
<rect fill="white" x="1" y="8" width="25" height="36"/>
<path d="M12.502 42.532C9.89267 42.532 7.77733 41.9493 6.156 40.784C4.56 39.6187 3.39467 38.048 2.66 36.072C1.95067 34.096 1.596 31.892 1.596 29.46C1.596 27.5093 1.76067 25.5587 2.09 23.608C2.44467 21.632 2.98933 19.77 3.724 18.022C4.45867 16.2487 5.396 14.678 6.536 13.31C7.70133 11.9167 9.082 10.8273 10.678 10.042C12.274 9.25667 14.1233 8.864 16.226 8.864C17.4673 8.864 18.582 9.016 19.57 9.32C20.5833 9.624 21.4447 9.99133 22.154 10.422C22.8633 10.8527 23.408 11.2707 23.788 11.676C24.168 12.0813 24.358 12.3853 24.358 12.588C24.358 12.9173 24.168 13.272 23.788 13.652C23.408 14.0067 23.028 14.184 22.648 14.184C22.5467 14.184 22.3567 14.032 22.078 13.728C21.8247 13.424 21.4447 13.082 20.938 12.702C20.4567 12.2967 19.8233 11.942 19.038 11.638C18.2527 11.334 17.2773 11.182 16.112 11.182C14.4907 11.182 13.0467 11.5747 11.78 12.36C10.5387 13.1453 9.462 14.1967 8.55 15.514C7.66333 16.806 6.92867 18.2627 6.346 19.884C5.76333 21.5053 5.33267 23.1647 5.054 24.862C4.77533 26.534 4.636 28.13 4.636 29.65C4.636 30.942 4.80067 32.2087 5.13 33.45C5.45933 34.6913 5.966 35.806 6.65 36.794C7.334 37.7567 8.18267 38.5293 9.196 39.112C10.2347 39.6947 11.438 39.986 12.806 39.986C14.174 39.986 15.4533 39.7073 16.644 39.15C17.86 38.5673 18.8733 37.782 19.684 36.794C20.52 35.806 21.014 34.6913 21.166 33.45L21.964 27.218H12.388C11.7293 27.218 11.4 26.8253 11.4 26.04C11.4 25.6853 11.5013 25.394 11.704 25.166C11.9067 24.938 12.16 24.824 12.464 24.824H23.978C24.8393 24.824 25.232 25.2167 25.156 26.002L23.256 41.468C23.2053 41.924 23.0533 42.2153 22.8 42.342C22.5467 42.4687 22.2047 42.532 21.774 42.532C21.3433 42.532 20.9507 42.4433 20.596 42.266C20.2413 42.114 20.102 41.81 20.178 41.354L20.482 39.34C19.4687 40.3787 18.2527 41.1767 16.834 41.734C15.4407 42.266 13.9967 42.532 12.502 42.532Z"/>
</mask>
<path d="M12.502 42.532C9.89267 42.532 7.77733 41.9493 6.156 40.784C4.56 39.6187 3.39467 38.048 2.66 36.072C1.95067 34.096 1.596 31.892 1.596 29.46C1.596 27.5093 1.76067 25.5587 2.09 23.608C2.44467 21.632 2.98933 19.77 3.724 18.022C4.45867 16.2487 5.396 14.678 6.536 13.31C7.70133 11.9167 9.082 10.8273 10.678 10.042C12.274 9.25667 14.1233 8.864 16.226 8.864C17.4673 8.864 18.582 9.016 19.57 9.32C20.5833 9.624 21.4447 9.99133 22.154 10.422C22.8633 10.8527 23.408 11.2707 23.788 11.676C24.168 12.0813 24.358 12.3853 24.358 12.588C24.358 12.9173 24.168 13.272 23.788 13.652C23.408 14.0067 23.028 14.184 22.648 14.184C22.5467 14.184 22.3567 14.032 22.078 13.728C21.8247 13.424 21.4447 13.082 20.938 12.702C20.4567 12.2967 19.8233 11.942 19.038 11.638C18.2527 11.334 17.2773 11.182 16.112 11.182C14.4907 11.182 13.0467 11.5747 11.78 12.36C10.5387 13.1453 9.462 14.1967 8.55 15.514C7.66333 16.806 6.92867 18.2627 6.346 19.884C5.76333 21.5053 5.33267 23.1647 5.054 24.862C4.77533 26.534 4.636 28.13 4.636 29.65C4.636 30.942 4.80067 32.2087 5.13 33.45C5.45933 34.6913 5.966 35.806 6.65 36.794C7.334 37.7567 8.18267 38.5293 9.196 39.112C10.2347 39.6947 11.438 39.986 12.806 39.986C14.174 39.986 15.4533 39.7073 16.644 39.15C17.86 38.5673 18.8733 37.782 19.684 36.794C20.52 35.806 21.014 34.6913 21.166 33.45L21.964 27.218H12.388C11.7293 27.218 11.4 26.8253 11.4 26.04C11.4 25.6853 11.5013 25.394 11.704 25.166C11.9067 24.938 12.16 24.824 12.464 24.824H23.978C24.8393 24.824 25.232 25.2167 25.156 26.002L23.256 41.468C23.2053 41.924 23.0533 42.2153 22.8 42.342C22.5467 42.4687 22.2047 42.532 21.774 42.532C21.3433 42.532 20.9507 42.4433 20.596 42.266C20.2413 42.114 20.102 41.81 20.178 41.354L20.482 39.34C19.4687 40.3787 18.2527 41.1767 16.834 41.734C15.4407 42.266 13.9967 42.532 12.502 42.532Z" fill="#A1EE30"/>
<path d="M6.156 40.784L5.86114 41.1878L5.86418 41.19L6.156 40.784ZM2.66 36.072L2.18937 36.2409L2.19134 36.2462L2.66 36.072ZM2.09 23.608L1.59784 23.5197L1.59698 23.5248L2.09 23.608ZM3.724 18.022L4.18495 18.2157L4.18593 18.2134L3.724 18.022ZM6.536 13.31L6.15246 12.9892L6.15189 12.9899L6.536 13.31ZM10.678 10.042L10.8988 10.4906H10.8988L10.678 10.042ZM19.57 9.32L19.423 9.7979L19.4263 9.79891L19.57 9.32ZM23.788 11.676L24.1528 11.334L24.1528 11.334L23.788 11.676ZM23.788 13.652L24.1292 14.0175L24.1355 14.0116L24.1416 14.0056L23.788 13.652ZM22.078 13.728L21.6939 14.0481L21.7014 14.0572L21.7094 14.0659L22.078 13.728ZM20.938 12.702L20.6159 13.0845L20.6267 13.0935L20.638 13.102L20.938 12.702ZM19.038 11.638L18.8575 12.1043H18.8575L19.038 11.638ZM11.78 12.36L11.5165 11.935L11.5127 11.9375L11.78 12.36ZM8.55 15.514L8.1389 15.2294L8.13774 15.2311L8.55 15.514ZM5.054 24.862L5.5472 24.9442L5.54739 24.943L5.054 24.862ZM5.13 33.45L4.64672 33.5782V33.5782L5.13 33.45ZM6.65 36.794L6.23887 37.0786L6.24241 37.0836L6.65 36.794ZM9.196 39.112L8.94675 39.5455L8.95138 39.5481L9.196 39.112ZM16.644 39.15L16.856 39.6029L16.8601 39.6009L16.644 39.15ZM19.684 36.794L19.3023 36.471L19.2975 36.4768L19.684 36.794ZM21.166 33.45L20.67 33.3865L20.6697 33.3892L21.166 33.45ZM21.964 27.218L22.46 27.2815L22.5321 26.718H21.964V27.218ZM11.704 25.166L12.0777 25.4982L12.0777 25.4982L11.704 25.166ZM25.156 26.002L25.6524 26.063L25.6537 26.0502L25.156 26.002ZM23.256 41.468L22.7597 41.407L22.7591 41.4128L23.256 41.468ZM22.8 42.342L23.0236 42.7892V42.7892L22.8 42.342ZM20.596 42.266L20.8196 41.8188L20.8065 41.8122L20.793 41.8064L20.596 42.266ZM20.178 41.354L20.6713 41.4362L20.6724 41.4286L20.178 41.354ZM20.482 39.34L20.9764 39.4146L21.2081 37.8798L20.1241 38.9908L20.482 39.34ZM16.834 41.734L17.0124 42.2011L17.0168 42.1994L16.834 41.734ZM12.502 42.532V42.032C9.96541 42.032 7.9614 41.4659 6.44782 40.378L6.156 40.784L5.86418 41.19C7.59327 42.4328 9.81992 43.032 12.502 43.032V42.532ZM6.156 40.784L6.45085 40.3802C4.93942 39.2766 3.83155 37.7883 3.12866 35.8978L2.66 36.072L2.19134 36.2462C2.95779 38.3077 4.18058 39.9607 5.86115 41.1878L6.156 40.784ZM2.66 36.072L3.1306 35.9031C2.44353 33.9891 2.096 31.8434 2.096 29.46H1.596H1.096C1.096 31.9406 1.4578 34.2029 2.1894 36.2409L2.66 36.072ZM1.596 29.46H2.096C2.096 27.5376 2.25827 25.6148 2.58302 23.6912L2.09 23.608L1.59698 23.5248C1.26307 25.5025 1.096 27.481 1.096 29.46H1.596ZM2.09 23.608L2.58214 23.6963C2.93069 21.7544 3.46532 19.9279 4.18494 18.2157L3.724 18.022L3.26306 17.8283C2.51334 19.6121 1.95864 21.5096 1.59786 23.5197L2.09 23.608ZM3.724 18.022L4.18593 18.2134C4.90279 16.483 5.81481 14.9565 6.92011 13.6301L6.536 13.31L6.15189 12.9899C4.97719 14.3995 4.01454 16.0143 3.26207 17.8306L3.724 18.022ZM6.536 13.31L6.91954 13.6308C8.0411 12.2898 9.36669 11.2445 10.8988 10.4906L10.678 10.042L10.4572 9.59337C8.79731 10.4102 7.36157 11.5435 6.15246 12.9892L6.536 13.31ZM10.678 10.042L10.8988 10.4906C12.4146 9.74471 14.186 9.364 16.226 9.364V8.864V8.364C14.0606 8.364 12.1334 8.76862 10.4572 9.59337L10.678 10.042ZM16.226 8.864V9.364C17.4272 9.364 18.491 9.51114 19.423 9.79789L19.57 9.32L19.717 8.84211C18.673 8.52085 17.5075 8.364 16.226 8.364V8.864ZM19.57 9.32L19.4263 9.79891C20.4096 10.0939 21.2298 10.4458 21.8945 10.8494L22.154 10.422L22.4135 9.99461C21.6596 9.53686 20.7571 9.15411 19.7137 8.84109L19.57 9.32ZM22.154 10.422L21.8945 10.8494C22.5821 11.2669 23.0855 11.6577 23.4232 12.018L23.788 11.676L24.1528 11.334C23.7305 10.8836 23.1445 10.4384 22.4135 9.99461L22.154 10.422ZM23.788 11.676L23.4232 12.018C23.6017 12.2084 23.7204 12.3592 23.7915 12.473C23.8701 12.5987 23.858 12.6278 23.858 12.588H24.358H24.858C24.858 12.3455 24.7509 12.1213 24.6395 11.943C24.5206 11.7528 24.3543 11.549 24.1528 11.334L23.788 11.676ZM24.358 12.588H23.858C23.858 12.7219 23.7772 12.9557 23.4344 13.2984L23.788 13.652L24.1416 14.0056C24.5588 13.5883 24.858 13.1128 24.858 12.588H24.358ZM23.788 13.652L23.4468 13.2865C23.1249 13.5869 22.861 13.684 22.648 13.684V14.184V14.684C23.195 14.684 23.6911 14.4264 24.1292 14.0175L23.788 13.652ZM22.648 14.184V13.684C22.6967 13.684 22.7331 13.6929 22.7529 13.699C22.7731 13.7052 22.7848 13.7112 22.7867 13.7122C22.789 13.7134 22.7749 13.706 22.7418 13.6796C22.676 13.6269 22.5787 13.5343 22.4466 13.3901L22.078 13.728L21.7094 14.0659C21.856 14.2257 21.993 14.3611 22.1172 14.4604C22.1791 14.51 22.2489 14.5596 22.3241 14.5988C22.3924 14.6344 22.507 14.684 22.648 14.684V14.184ZM22.078 13.728L22.4621 13.4079C22.1737 13.0618 21.7596 12.6932 21.238 12.302L20.938 12.702L20.638 13.102C21.1298 13.4708 21.4756 13.7862 21.6939 14.0481L22.078 13.728ZM20.938 12.702L21.2601 12.3195C20.7249 11.8689 20.039 11.4893 19.2185 11.1717L19.038 11.638L18.8575 12.1043C19.6076 12.3947 20.1884 12.7244 20.6159 13.0845L20.938 12.702ZM19.038 11.638L19.2185 11.1717C18.3581 10.8387 17.317 10.682 16.112 10.682V11.182V11.682C17.2376 11.682 18.1472 11.8293 18.8575 12.1043L19.038 11.638ZM16.112 11.182V10.682C14.4061 10.682 12.8692 11.0964 11.5165 11.935L11.78 12.36L12.0435 12.785C13.2241 12.053 14.5753 11.682 16.112 11.682V11.182ZM11.78 12.36L11.5127 11.9375C10.2097 12.7618 9.0856 13.8619 8.1389 15.2294L8.55 15.514L8.9611 15.7986C9.8384 14.5314 10.8676 13.5289 12.0473 12.7825L11.78 12.36ZM8.55 15.514L8.13774 15.2311C7.22459 16.5617 6.47118 18.0572 5.87546 19.7149L6.346 19.884L6.81654 20.0531C7.38615 18.4681 8.10208 17.0503 8.96226 15.7969L8.55 15.514ZM6.346 19.884L5.87546 19.7149C5.28253 21.3648 4.84421 23.0536 4.56061 24.781L5.054 24.862L5.54739 24.943C5.82113 23.2757 6.24414 21.6459 6.81654 20.0531L6.346 19.884ZM5.054 24.862L4.5608 24.7798C4.27812 26.4759 4.136 28.0995 4.136 29.65H4.636H5.136C5.136 28.1605 5.27255 26.5921 5.5472 24.9442L5.054 24.862ZM4.636 29.65H4.136C4.136 30.985 4.30622 32.2948 4.64672 33.5782L5.13 33.45L5.61328 33.3218C5.29511 32.1225 5.136 30.899 5.136 29.65H4.636ZM5.13 33.45L4.64672 33.5782C4.98986 34.8716 5.51978 36.0399 6.2389 37.0786L6.65 36.794L7.0611 36.5094C6.41222 35.5721 5.92881 34.5111 5.61328 33.3218L5.13 33.45ZM6.65 36.794L6.24241 37.0836C6.96775 38.1045 7.87023 38.9264 8.94676 39.5455L9.196 39.112L9.44524 38.6785C8.49511 38.1322 7.70025 37.4089 7.05759 36.5044L6.65 36.794ZM9.196 39.112L8.95138 39.5481C10.0752 40.1785 11.3652 40.486 12.806 40.486V39.986V39.486C11.5108 39.486 10.3941 39.2108 9.44063 38.6759L9.196 39.112ZM12.806 39.986V40.486C14.2442 40.486 15.5962 40.1925 16.856 39.6028L16.644 39.15L16.432 38.6972C15.3104 39.2222 14.1038 39.486 12.806 39.486V39.986ZM16.644 39.15L16.8601 39.6009C18.1383 38.9884 19.211 38.1588 20.0705 37.1112L19.684 36.794L19.2975 36.4768C18.5357 37.4052 17.5817 38.1462 16.4279 38.6991L16.644 39.15ZM19.684 36.794L20.0657 37.117C20.9623 36.0573 21.498 34.8523 21.6623 33.5108L21.166 33.45L20.6697 33.3892C20.53 34.5304 20.0777 35.5547 19.3023 36.471L19.684 36.794ZM21.166 33.45L21.662 33.5135L22.46 27.2815L21.964 27.218L21.4681 27.1545L20.6701 33.3865L21.166 33.45ZM21.964 27.218V26.718H12.388V27.218V27.718H21.964V27.218ZM12.388 27.218V26.718C12.1611 26.718 12.074 26.6545 12.0301 26.6022C11.9721 26.533 11.9 26.3749 11.9 26.04H11.4H10.9C10.9 26.4904 10.9926 26.9213 11.2639 27.2448C11.5493 27.5851 11.9563 27.718 12.388 27.718V27.218ZM11.4 26.04H11.9C11.9 25.7866 11.9694 25.62 12.0777 25.4982L11.704 25.166L11.3303 24.8338C11.0332 25.168 10.9 25.584 10.9 26.04H11.4ZM11.704 25.166L12.0777 25.4982C12.1859 25.3765 12.3034 25.324 12.464 25.324V24.824V24.324C12.0166 24.324 11.6275 24.4995 11.3303 24.8338L11.704 25.166ZM12.464 24.824V25.324H23.978V24.824V24.324H12.464V24.824ZM23.978 24.824V25.324C24.3473 25.324 24.503 25.4101 24.5649 25.4721C24.6167 25.5238 24.6882 25.6447 24.6583 25.9538L25.156 26.002L25.6537 26.0502C25.6998 25.574 25.613 25.1058 25.2721 24.7649C24.9414 24.4343 24.47 24.324 23.978 24.324V24.824ZM25.156 26.002L24.6597 25.941L22.7597 41.407L23.256 41.468L23.7523 41.529L25.6523 26.063L25.156 26.002ZM23.256 41.468L22.7591 41.4128C22.7152 41.8079 22.6016 41.8822 22.5764 41.8948L22.8 42.342L23.0236 42.7892C23.5051 42.5485 23.6955 42.0401 23.7529 41.5232L23.256 41.468ZM22.8 42.342L22.5764 41.8948C22.4192 41.9734 22.1638 42.032 21.774 42.032V42.532V43.032C22.2455 43.032 22.6741 42.964 23.0236 42.7892L22.8 42.342ZM21.774 42.532V42.032C21.4141 42.032 21.099 41.9585 20.8196 41.8188L20.596 42.266L20.3724 42.7132C20.8023 42.9282 21.2725 43.032 21.774 43.032V42.532ZM20.596 42.266L20.793 41.8064C20.711 41.7713 20.6901 41.7376 20.68 41.7157C20.6651 41.6831 20.6435 41.6022 20.6712 41.4362L20.178 41.354L19.6848 41.2718C19.6365 41.5618 19.6465 41.8609 19.771 42.1323C19.9002 42.4144 20.1264 42.6087 20.399 42.7256L20.596 42.266ZM20.178 41.354L20.6724 41.4286L20.9764 39.4146L20.482 39.34L19.9876 39.2654L19.6836 41.2794L20.178 41.354ZM20.482 39.34L20.1241 38.9908C19.1627 39.9763 18.0073 40.7359 16.6512 41.2686L16.834 41.734L17.0168 42.1994C18.498 41.6175 19.7746 40.7811 20.8399 39.6892L20.482 39.34ZM16.834 41.734L16.6556 41.2669C15.3194 41.7771 13.9358 42.032 12.502 42.032V42.532V43.032C14.0575 43.032 15.5619 42.7549 17.0124 42.2011L16.834 41.734Z" fill="#A1EE30" mask="url(#path-4-outside-1_20_101)"/>
<defs>
<clipPath id="clip0_20_101">
<rect width="32.1754" height="32.1754" fill="white" transform="translate(29 10)"/>
</clipPath>
</defs>
</svg>
